<svg id="Layer_1" data-name="Layer 1" xmlns="http://www.w3.org/2000/svg" viewBox="0 0 919.51 187.16"><defs><style>.cls-1,.cls-8,.cls-9{fill:#223b61;}.cls-2{fill:#2b4773;}.cls-10,.cls-3{fill:#34537f;}.cls-4{fill:#264068;opacity:0.84;}.cls-5{fill:#0d2951;opacity:0.15;}.cls-6{fill:#27426c;opacity:0.79;}.cls-7{fill:#314e7a;}.cls-8{opacity:0.69;}.cls-9{opacity:0.63;}.cls-10{opacity:0.6;}.cls-11,.cls-16{font-size:88.27px;font-family:Timeless-Normal, Timeless;}.cls-11,.cls-16,.cls-20{fill:#1b3966;}.cls-11{letter-spacing:0.05em;}.cls-12{letter-spacing:0.03em;}.cls-13{letter-spacing:0.09em;}.cls-14{letter-spacing:0.03em;}.cls-15{letter-spacing:0.05em;}.cls-16{letter-spacing:0.11em;}.cls-17{letter-spacing:0.1em;}.cls-18{letter-spacing:0.07em;}.cls-19{opacity:0.07;}</style></defs><title>Winter_Logo</title><polygon class="cls-1" points="471.33 4.89 478.66 28.89 485.24 11.81 471.33 4.89"/><rect class="cls-2" x="451.83" y="90.07" width="31.82" height="31.82" transform="translate(62.06 361.78) rotate(-45)"/><path class="cls-2" d="M492.91,32.64l-12.73,22.6L454.08,8.47l-30.25,97.25L467.9,149.8l43.33-43.33ZM467.74,139.31,434.41,106l33.33-33.33L501.08,106Z"/><polygon class="cls-3" points="478.32 139.51 473.57 133.48 467.77 139.4 434.44 106.07 449.09 91.42 435.36 68.82 423.85 105.81 467.94 149.9 478.32 139.51"/><polygon class="cls-4" points="454.08 8.47 446.19 94.32 434.41 105.98 444.22 115.79 443.33 125.48 423.82 105.72 454.08 8.47"/><polygon class="cls-5" points="471.33 39.38 436.39 65.32 454.08 8.47 471.33 39.38"/><polygon class="cls-6" points="462.45 23.48 481.58 86.47 475.31 46.5 462.45 23.48"/><polygon class="cls-7" points="469.06 127.16 452.1 99.12 445.25 105.98 467.74 128.47 469.06 127.16"/><polygon class="cls-8" points="492.08 34.12 502.91 114.8 499.57 118.22 498.16 108.87 501.08 105.98 494.45 99.31 481.02 53.74 492.08 34.12"/><polygon class="cls-9" points="486.58 44.23 497.58 88.56 492.08 34.12 486.58 44.23"/><polygon class="cls-10" points="496.35 101.2 497.36 87.69 501.08 105.98 496.35 101.2"/><polygon class="cls-7" points="482.57 135.02 481.77 125.3 485.72 121.49 487.48 130.26 482.57 135.02"/><polygon class="cls-7" points="480.02 116.19 477.51 93.29 481.08 96.85 484.35 111.87 480.02 116.19"/><polygon class="cls-6" points="476.31 7.37 477.34 24.56 485.24 11.81 476.31 7.37"/><text class="cls-11" transform="translate(8.47 118.52)">P<tspan class="cls-12" x="51.11" y="0">R</tspan><tspan x="107.87" y="0">O</tspan><tspan class="cls-13" x="175.75" y="0">J</tspan><tspan x="215.29" y="0">E</tspan><tspan class="cls-14" x="269.05" y="0">C</tspan><tspan class="cls-15" x="329.95" y="0">T</tspan></text><text class="cls-16" transform="translate(551.9 118.52)">W<tspan class="cls-17" x="92.86" y="0">I</tspan><tspan class="cls-18" x="126.4" y="0">NT</tspan><tspan class="cls-15" x="249.01" y="0">ER</tspan></text><g class="cls-19"><polygon class="cls-1" points="471.33 181.89 478.66 176.68 485.24 180.38 471.33 181.89"/><polygon class="cls-2" points="467.74 164.83 445.25 159.95 467.74 155.06 490.24 159.95 467.74 164.83"/><path class="cls-2" d="M511.24,159.84l-43.33-9.4L423.82,160l30.25,21.11L480.18,171l12.73,4.9Zm-10.16.11-33.33,7.23-33.33-7.23,33.33-7.23Z"/><polygon class="cls-3" points="478.32 152.67 473.57 153.98 467.77 152.69 434.44 159.93 449.09 163.11 435.36 168.01 423.85 159.98 467.94 150.42 478.32 152.67"/><polygon class="cls-4" points="454.08 181.11 446.19 162.48 434.41 159.95 444.22 157.82 443.33 155.72 423.82 160 454.08 181.11"/><polygon class="cls-5" points="471.33 174.4 436.39 168.77 454.08 181.11 471.33 174.4"/><polygon class="cls-6" points="462.45 177.85 481.58 164.18 475.31 172.85 462.45 177.85"/><polygon class="cls-7" points="469.06 155.35 452.1 161.44 445.25 159.95 467.74 155.06 469.06 155.35"/><polygon class="cls-8" points="492.08 175.54 502.91 158.03 499.57 157.29 498.16 159.32 501.08 159.95 494.45 161.4 481.02 171.29 492.08 175.54"/><polygon class="cls-9" points="486.58 173.35 497.58 163.73 492.08 175.54 486.58 173.35"/><polygon class="cls-10" points="496.35 160.98 497.36 163.91 501.08 159.95 496.35 160.98"/><polygon class="cls-7" points="482.57 153.64 481.77 155.75 485.72 156.58 487.48 154.68 482.57 153.64"/><polygon class="cls-7" points="480.02 157.73 477.51 162.7 481.08 161.93 484.35 158.67 480.02 157.73"/><polygon class="cls-6" points="476.31 181.35 477.34 177.62 485.24 180.38 476.31 181.35"/></g><g class="cls-19"><path class="cls-20" d="M20.88,126.87l7.27,0q4.26,0,8.07.25a42.92,42.92,0,0,1,6.56.91,10.66,10.66,0,0,1,4.07,1.66,1.88,1.88,0,0,1,.6,2.53,5.68,5.68,0,0,1-2.87,2.48,24.24,24.24,0,0,1-5.41,1.72,58.2,58.2,0,0,1-7.13,1q-3.91.32-7.91.32h-20l.12-.31q1.32,0,2.18,0a6,6,0,0,0,1.36-.2,1.56,1.56,0,0,0,.76-.46,3.07,3.07,0,0,0,.46-.78c2.84-6.67,5-9.22,7.17-15.4a1.55,1.55,0,0,0,.11-.74c0-.18-.18-.31-.45-.41a4.68,4.68,0,0,0-1.22-.18q-.83,0-2.15,0l.08-.28H28.76l-.08.28q-1.41,0-2.3,0a7.24,7.24,0,0,0-1.46.17,1.73,1.73,0,0,0-.83.41,2,2,0,0,0-.43.76A45.64,45.64,0,0,1,20.88,126.87Zm-4.49,9.29a6.35,6.35,0,0,0,1.39.18q.83,0,1.72,0t1.75-.06q.86,0,1.66,0,3,0,5.83-.24a40.65,40.65,0,0,0,5.07-.72A16.14,16.14,0,0,0,37.63,134a4.24,4.24,0,0,0,2-1.82,1.6,1.6,0,0,0-.17-1.93A5.22,5.22,0,0,0,37,129a24.52,24.52,0,0,0-4.45-.68q-2.69-.21-6.06-.18l-6.31.05C18.67,131.26,17.81,132.79,16.39,136.17Z"/><path class="cls-20" d="M112.45,118.84l-.07.28a6.24,6.24,0,0,0-2.35.53q-1.29.53-2.9,1.29t-3.5,1.62a39.4,39.4,0,0,1-3.94,1.54l-3.17,1q-1.34.45-2.71.86t-3.18.88q-1.8.46-4.68,1.11,3,.14,5.6.47a31.77,31.77,0,0,1,4.54.86,7.5,7.5,0,0,1,2.84,1.32,1.5,1.5,0,0,1,.48,1.85,4.94,4.94,0,0,1-2.62,2.39,22.06,22.06,0,0,1-5.07,1.61,54.38,54.38,0,0,1-6.78.91q-3.76.29-7.72.29H55.74l.11-.3q1.35,0,2.21,0a6.14,6.14,0,0,0,1.38-.2,1.53,1.53,0,0,0,.76-.45,2.89,2.89,0,0,0,.44-.77c2.67-6.61,4.66-9.24,6.72-15.43a1.56,1.56,0,0,0,.1-.74c0-.18-.19-.31-.45-.41a4.7,4.7,0,0,0-1.23-.18c-.55,0-1.27,0-2.15,0l.08-.28H79.78l-.08.28q-1.41,0-2.3,0a5.82,5.82,0,0,0-1.37.17,1.6,1.6,0,0,0-.74.42,2,2,0,0,0-.41.75,55.06,55.06,0,0,1-2.84,7l6.4,0q4.19-1,7.51-1.91t6.2-1.92c1.91-.67,3.72-1.39,5.39-2.17a55.32,55.32,0,0,0,5-2.66ZM68.33,135.78a4.91,4.91,0,0,0,1.26.33,15.74,15.74,0,0,0,1.78.15l1.88,0H75q2.79,0,5.55-.15a42.79,42.79,0,0,0,5-.54,16.09,16.09,0,0,0,3.8-1.09,3.57,3.57,0,0,0,2-1.74,1.46,1.46,0,0,0-.69-2,10.08,10.08,0,0,0-3.49-1.23,40.06,40.06,0,0,0-5.3-.63q-3-.18-6.21-.18H71.43C70.18,131.48,69.5,132.84,68.33,135.78Z"/><path class="cls-20" d="M173.73,128.13A7.88,7.88,0,0,1,170,132.4a29.31,29.31,0,0,1-7.43,3.14,63.73,63.73,0,0,1-9.81,1.93,91.37,91.37,0,0,1-10.75.67,77.82,77.82,0,0,1-10.38-.64,42.4,42.4,0,0,1-8.63-2,13.34,13.34,0,0,1-5.36-3.16,3.78,3.78,0,0,1-.73-4.28,8.69,8.69,0,0,1,3.24-3.69,24.16,24.16,0,0,1,6.42-3,54.91,54.91,0,0,1,9.35-2.08,86.62,86.62,0,0,1,12.18-.77,79.07,79.07,0,0,1,11.77.77,37.9,37.9,0,0,1,8.34,2.1,11.44,11.44,0,0,1,4.69,3.06A3.86,3.86,0,0,1,173.73,128.13Zm-8.07,0a4.07,4.07,0,0,0-.19-2.92,6.17,6.17,0,0,0-2.72-2.68,19.64,19.64,0,0,0-5.76-2,46,46,0,0,0-9.15-.76,51.83,51.83,0,0,0-9.56.77,32.74,32.74,0,0,0-6.76,2,15.3,15.3,0,0,0-4.36,2.67A8.09,8.09,0,0,0,125,128.1a4.19,4.19,0,0,0-.05,2.94,5.56,5.56,0,0,0,2.5,2.75,18.34,18.34,0,0,0,5.64,2.08,44.07,44.07,0,0,0,9.37.82,51.42,51.42,0,0,0,9.78-.81,33.26,33.26,0,0,0,7-2.06,15.62,15.62,0,0,0,4.43-2.76A7.14,7.14,0,0,0,165.65,128.12Z"/><path class="cls-20" d="M207.78,137.42l-.05.29H190.66l.06-.29q1.46,0,2.38,0a7,7,0,0,0,1.45-.19,1.55,1.55,0,0,0,.77-.42,1.72,1.72,0,0,0,.35-.77c1.23-5.59,2.12-8.1,3.2-13.43a3.25,3.25,0,0,0,0-1,2.06,2.06,0,0,0-.55-1.12,3.71,3.71,0,0,0-1.48-.92,8.1,8.1,0,0,0-2.77-.38,5.62,5.62,0,0,0-2.13.34,13.67,13.67,0,0,0-1.5.73,8.3,8.3,0,0,1-1.49.65,5.24,5.24,0,0,1-2.19.1,2.49,2.49,0,0,1-1.42-.46.77.77,0,0,1-.23-.68q.06-.33,1-.56a17.58,17.58,0,0,1,2.14-.36q1.21-.14,2.46-.2t2-.06a41.14,41.14,0,0,1,6.65.45,15.74,15.74,0,0,1,4.23,1.21,4.8,4.8,0,0,1,2.13,1.76,2.88,2.88,0,0,1,.34,2.09c-1,4.68-1.68,6.94-2.7,11.87a1.25,1.25,0,0,0,0,.77.91.91,0,0,0,.6.42,5.93,5.93,0,0,0,1.38.19Q206.32,137.41,207.78,137.42Z"/><path class="cls-20" d="M270,122.15h-1.42a7.4,7.4,0,0,0-1.78-1,11.41,11.41,0,0,0-2.17-.6,20.63,20.63,0,0,0-2.76-.29q-1.54-.07-3.67-.07H242.36q-.75,0-1.42,0a5.82,5.82,0,0,0-1.17.15c-.33.08-.51.21-.53.38-.33,2.9-.58,4.32-1.07,7.19h18.18q1.52,0,2.56,0a10.11,10.11,0,0,0,1.73-.19,3,3,0,0,0,1.08-.43,2,2,0,0,0,.63-.77h1.16c-.2,1.66-.32,2.49-.53,4.17h-1.17a1.41,1.41,0,0,0-.44-.75,2.19,2.19,0,0,0-1-.42,10.62,10.62,0,0,0-1.73-.18q-1.07,0-2.51,0H237.94c-.44,2.53-.68,3.8-1.09,6.42,0,.3,0,.49.14.56a7.57,7.57,0,0,0,1.76.1h18.36a37.11,37.11,0,0,0,4.88-.24,2.84,2.84,0,0,0,2.28-1.32h1.27c-.17,1.17-.25,1.75-.41,2.94H224.52l0-.29a15.49,15.49,0,0,0,3.59-.25,1.34,1.34,0,0,0,.92-1.17c1.06-6.42,1.91-9.3,2.68-15.52a.92.92,0,0,0-.58-1.13,14.19,14.19,0,0,0-3.42-.24l0-.28H268C268.86,120.17,269.25,120.83,270,122.15Z"/><path class="cls-20" d="M330.9,120.73l-.36.47a28.35,28.35,0,0,0-4-.74q-2.21-.27-4.63-.39t-4.9-.15l-4.59,0a71.72,71.72,0,0,0-10.4.66,35.54,35.54,0,0,0-7.34,1.78,12.83,12.83,0,0,0-4.48,2.64,5.22,5.22,0,0,0-1.69,3.26,4.36,4.36,0,0,0,1.1,3.22,10.21,10.21,0,0,0,4,2.69,31.6,31.6,0,0,0,7.13,1.85,67.55,67.55,0,0,0,10.42.7,50,50,0,0,0,10.11-.83,29.6,29.6,0,0,0,7.08-2.43,2.24,2.24,0,0,1,.46,1,7.37,7.37,0,0,1,.14,1.15c0,.39,0,.78,0,1.16s0,.74,0,1h-1q-.44-.51-2.14-.51-.54,0-1.35.06l-1.71.14-1.76.16-1.4.13q-4.78.34-9.57.34a94.4,94.4,0,0,1-12.56-.76,50.37,50.37,0,0,1-9.52-2.11,17,17,0,0,1-5.89-3.15,4.54,4.54,0,0,1-1.76-3.87,5.87,5.87,0,0,1,2.41-3.93,19,19,0,0,1,6.15-3.06,53.55,53.55,0,0,1,9.5-2,99.42,99.42,0,0,1,12.6-.71,104.84,104.84,0,0,1,10.63.52A54.37,54.37,0,0,1,330.9,120.73Z"/><path class="cls-20" d="M386.61,134.38l-.27,3.35h-46.8c-.12-1.36-.18-2-.29-3.38h.8a3.69,3.69,0,0,0,2.34,1.52,22.58,22.58,0,0,0,5.13.42h11.77c0-6.36.13-9.49.13-15.81a1.17,1.17,0,0,0-.22-.77,1.43,1.43,0,0,0-.75-.4,6.77,6.77,0,0,0-1.46-.17q-.93,0-2.34,0c0-.11,0-.17,0-.28h17v.28q-1.5,0-2.43,0a6.75,6.75,0,0,0-1.46.17,1.17,1.17,0,0,0-.7.4,1.38,1.38,0,0,0-.17.77c0,6.33,0,9.46-.07,15.81h11.53a22.4,22.4,0,0,0,5.09-.4,3.61,3.61,0,0,0,2.25-1.52Z"/></g><g class="cls-19"><path class="cls-20" d="M635.12,137.45l0,.28H622.52v-.28a7.64,7.64,0,0,0,3.24-.45c.35-.26.27-.64-.24-1.13-5.87-5.39-8.76-8.1-14.49-13.4-5.59,5.55-8.46,8.39-14.25,14q-.35.34-.13.52a1.88,1.88,0,0,0,.77.29,8.24,8.24,0,0,0,1.35.14l1.62,0v.28H583.89v-.28a19.16,19.16,0,0,0,2.46-.13,3.85,3.85,0,0,0,1.65-.6l2.84-2c-5-4.85-7.54-7.28-12.51-12.09-5.61,5.54-8.46,8.33-14.13,13.89q-.71.64.22.8a17.92,17.92,0,0,0,2.71.15v.28h-14.7v-.28a8.41,8.41,0,0,0,3.09-.46,6,6,0,0,0,1.59-1c7.11-6.95,10.7-10.46,17.74-17.36h3.88c5.85,5.65,8.8,8.49,14.76,14.21,5.84-5.72,8.74-8.62,14.37-14.21h3.88q4.53,4.41,9.26,8.85t10,8.92a4,4,0,0,0,1.49.76A12.63,12.63,0,0,0,635.12,137.45Z"/><path class="cls-20" d="M665.71,118.83l0,.27q-1.5,0-2.43,0a7.5,7.5,0,0,0-1.44.15.93.93,0,0,0-.66.39,1.3,1.3,0,0,0-.08.76c.78,6.09,1.13,9.32,1.8,15.63a1.58,1.58,0,0,0,.27.79,1.29,1.29,0,0,0,.77.41,8.33,8.33,0,0,0,1.52.16q1,0,2.52,0l0,.28H650.34l0-.28q1.55,0,2.5,0a7.82,7.82,0,0,0,1.49-.16,1,1,0,0,0,.69-.41,1.38,1.38,0,0,0,.11-.79c-.58-6.31-.89-9.53-1.58-15.63a1.53,1.53,0,0,0-.26-.76,1.27,1.27,0,0,0-.75-.39,8.1,8.1,0,0,0-1.47-.15q-.93,0-2.43,0l0-.27Z"/><path class="cls-20" d="M741.25,137.45l.07.28h-14.9l-.06-.28a29,29,0,0,0,3-.11,3.18,3.18,0,0,0,1.39-.37.67.67,0,0,0,.31-.65,9,9,0,0,0-.18-1c-1.23-5.26-1.86-8-3.22-13-4.78,2.53-9.78,5.1-15,7.63s-10.41,5.13-15.61,7.75H684.91l0-.28q1.38,0,2.06,0a5.32,5.32,0,0,0,1.12-.17,2.46,2.46,0,0,0,.77-.37l.82-.61c-.94-6.16-1.43-9.31-2.5-15.22a8,8,0,0,0-.21-.91,1,1,0,0,0-.6-.59,4.89,4.89,0,0,0-1.48-.34,28.43,28.43,0,0,0-2.85-.11l0-.27h14.22l.06.27a26,26,0,0,0-2.72.11,3.07,3.07,0,0,0-1.3.35.65.65,0,0,0-.32.61,7.88,7.88,0,0,0,.13.88c1,5.29,1.49,8.1,2.4,13.63,10.89-5.24,21.69-10.65,32.54-16h4.5c1.89,6.3,2.75,9.83,4.41,16.65a9.33,9.33,0,0,0,.28.94,1.23,1.23,0,0,0,.62.65,4.56,4.56,0,0,0,1.52.38A26,26,0,0,0,741.25,137.45Z"/><path class="cls-20" d="M800.19,134.29c.4,1.38.59,2.07,1,3.44H752.9l-1.31-3.42h.82a5.51,5.51,0,0,0,2.85,1.54,25.22,25.22,0,0,0,5.39.43h12.09c-2-6.49-3.08-9.87-5.34-15.9a1.64,1.64,0,0,0-.5-.73,2.24,2.24,0,0,0-.9-.38,8.13,8.13,0,0,0-1.52-.16c-.62,0-1.41,0-2.35,0l-.1-.26h17l.11.26q-1.5,0-2.42,0a6.29,6.29,0,0,0-1.4.16c-.32.09-.5.22-.55.38a1.18,1.18,0,0,0,.11.73c2.37,6,3.46,9.41,5.59,15.9h11.89a21.18,21.18,0,0,0,5.1-.42,2.28,2.28,0,0,0,1.76-1.57Z"/><path class="cls-20" d="M849.2,121.92h-1.42a14.7,14.7,0,0,0-2.37-1,18,18,0,0,0-2.51-.56,26.12,26.12,0,0,0-2.93-.27q-1.58-.06-3.71-.06H820.37q-.76,0-1.41,0a4.89,4.89,0,0,0-1.08.14q-.43.12-.31.35c1.33,2.75,2,4.21,3.24,7.16l18.19,0q1.52,0,2.53,0a8,8,0,0,0,1.61-.2A1.54,1.54,0,0,0,844,127a1,1,0,0,0,.17-.79h1.16c.8,1.69,1.19,2.55,2,4.29h-1.17a3.32,3.32,0,0,0-.89-.77,3.87,3.87,0,0,0-1.22-.43,12.37,12.37,0,0,0-1.83-.18q-1.1,0-2.53,0l-18.23,0c1.1,2.61,1.63,3.94,2.69,6.58a.91.91,0,0,0,.45.56,8.48,8.48,0,0,0,1.81.1h18.32a33.37,33.37,0,0,0,4.73-.25q1.57-.25,1.54-1.34h1.26l1.21,3H812.86l-.11-.29a13.78,13.78,0,0,0,3.46-.24q.63-.24.28-1.16c-2.49-6.43-3.78-9.79-6.55-15.68a1.83,1.83,0,0,0-1.21-1.06,17.41,17.41,0,0,0-3.55-.22l-.12-.26h40.27C846.88,120,847.65,120.65,849.2,121.92Z"/><path class="cls-20" d="M907.73,118.81l.16.25a3.82,3.82,0,0,0-1.91.48,16.38,16.38,0,0,0-1.8,1.19l-2.06,1.56a15.06,15.06,0,0,1-2.52,1.53c-.84.4-1.57.76-2.18,1.06s-1.23.6-1.88.89-1.42.59-2.32.91-2.09.71-3.58,1.16q3.09.14,6,.48a48.46,48.46,0,0,1,5.32.9,18.38,18.38,0,0,1,4,1.38,4.51,4.51,0,0,1,2.17,1.93,1.85,1.85,0,0,1-.48,2.44,9.08,9.08,0,0,1-3.64,1.6,37.58,37.58,0,0,1-5.95.88q-3.48.27-7.41.27H868.29l-.13-.29q1.35,0,2.18,0a4.42,4.42,0,0,0,1.22-.19q.38-.14.39-.43a1.87,1.87,0,0,0-.21-.75,173.75,173.75,0,0,0-7.72-15.7,2.65,2.65,0,0,0-.52-.68,1.82,1.82,0,0,0-.79-.37,7.29,7.29,0,0,0-1.38-.17q-.86,0-2.19,0l-.15-.25h16.07l.15.25q-1.41,0-2.28,0a4.6,4.6,0,0,0-1.24.15c-.24.08-.37.21-.39.38a1.27,1.27,0,0,0,.22.7c1.52,2.67,2.26,4.1,3.71,7l6.42,0q3.21-1.05,5.64-2a44,44,0,0,0,4.36-2,24.28,24.28,0,0,0,3.41-2.13,25,25,0,0,0,2.78-2.45ZM879.3,135.88a8.73,8.73,0,0,0,1.53.32q.9.11,1.9.14l1.89,0h1.79q2.77,0,5.38-.15a31.47,31.47,0,0,0,4.52-.54,7.09,7.09,0,0,0,2.82-1.09,1.3,1.3,0,0,0,.4-1.77,4.55,4.55,0,0,0-2.49-2,21.2,21.2,0,0,0-4.62-1.28,52.18,52.18,0,0,0-5.88-.65q-3.16-.18-6.36-.18h-4.27C877.3,131.54,878,133,879.3,135.88Z"/></g></svg>