<svg id="Layer_1" data-name="Layer 1" xmlns="http://www.w3.org/2000/svg" viewBox="0 0 919.51 187.16"><defs><style>.cls-1{fill:#f8f9fb;}.cls-13,.cls-18,.cls-2,.cls-9{fill:#fff;}.cls-3{opacity:0.06;}.cls-4{fill:#f5f7f9;opacity:0.69;}.cls-5{opacity:0.05;}.cls-6{fill:#f9f9f9;opacity:0.4;}.cls-11,.cls-7{fill:#c1c1c1;}.cls-7{opacity:0.2;}.cls-8{fill:#d7d9dc;opacity:0.31;}.cls-9{opacity:0.61;}.cls-10,.cls-12{fill:#e4e8ed;}.cls-11{opacity:0.33;}.cls-12{opacity:0.79;}.cls-13,.cls-18{font-size:88.27px;font-family:Timeless-Normal, Timeless;}.cls-13{letter-spacing:0.05em;}.cls-14{letter-spacing:0.03em;}.cls-15{letter-spacing:0.09em;}.cls-16{letter-spacing:0.03em;}.cls-17{letter-spacing:0.05em;}.cls-18{letter-spacing:0.11em;}.cls-19{letter-spacing:0.1em;}.cls-20{letter-spacing:0.07em;}</style></defs><title>Winter_Logo</title><polygon class="cls-1" points="469.87 19.14 477.2 43.14 483.78 26.06 469.87 19.14"/><rect class="cls-2" x="450.37" y="104.32" width="31.82" height="31.82" transform="translate(51.56 364.92) rotate(-45)"/><path class="cls-2" d="M491.45,46.89l-12.73,22.6-26.1-46.77L422.36,120l44.08,44.08,43.33-43.33ZM466.28,153.56l-33.33-33.33,33.33-33.33,33.33,33.33Z"/><polygon class="cls-3" points="476.86 153.76 472.11 147.73 466.31 153.65 432.98 120.32 447.63 105.67 433.9 83.07 422.39 120.06 466.48 164.14 476.86 153.76"/><polygon class="cls-4" points="469.87 53.63 434.93 79.57 452.62 22.72 469.87 53.63"/><polygon class="cls-5" points="452.62 22.72 444.73 108.57 432.95 120.22 442.76 130.03 441.87 139.73 422.36 119.97 452.62 22.72"/><polygon class="cls-6" points="460.99 37.72 480.12 100.72 473.85 60.75 460.99 37.72"/><polygon class="cls-7" points="467.6 141.41 450.64 113.37 443.79 120.22 466.28 142.72 467.6 141.41"/><polygon class="cls-8" points="490.62 48.37 501.45 129.05 498.12 132.47 496.7 123.12 499.62 120.22 492.99 113.55 479.56 67.98 490.62 48.37"/><polygon class="cls-9" points="485.12 58.47 496.12 102.81 490.62 48.37 485.12 58.47"/><polygon class="cls-10" points="494.89 115.45 495.9 101.94 499.62 120.22 494.89 115.45"/><polygon class="cls-11" points="481.11 149.27 480.31 139.55 484.26 135.74 486.02 144.51 481.11 149.27"/><polygon class="cls-11" points="478.56 130.44 476.06 107.54 479.62 111.1 482.89 126.12 478.56 130.44"/><polygon class="cls-12" points="474.85 21.62 475.88 38.81 483.78 26.06 474.85 21.62"/><text class="cls-13" transform="translate(7.01 132.77)">P<tspan class="cls-14" x="51.11" y="0">R</tspan><tspan x="107.87" y="0">O</tspan><tspan class="cls-15" x="175.75" y="0">J</tspan><tspan x="215.29" y="0">E</tspan><tspan class="cls-16" x="269.05" y="0">C</tspan><tspan class="cls-17" x="329.95" y="0">T</tspan></text><text class="cls-18" transform="translate(550.44 132.77)">W<tspan class="cls-19" x="92.86" y="0">I</tspan><tspan class="cls-20" x="126.4" y="0">NT</tspan><tspan class="cls-17" x="249.01" y="0">ER</tspan></text></svg>